<svg xmlns="http://www.w3.org/2000/svg" xmlns:xlink="http://www.w3.org/1999/xlink" width="1080" zoomAndPan="magnify" viewBox="0 0 810 1012.49997" height="1350" preserveAspectRatio="xMidYMid meet" version="1.2"><defs><clipPath id="39d8c1e29f"><path d="M 106 705 L 704 705 L 704 847.457031 L 106 847.457031 Z M 106 705 "/></clipPath><clipPath id="f25ffc723f"><path d="M 419 164.542969 L 647 164.542969 L 647 265 L 419 265 Z M 419 164.542969 "/></clipPath><clipPath id="4c44afc966"><path d="M 689 491 L 746.457031 491 L 746.457031 521 L 689 521 Z M 689 491 "/></clipPath><clipPath id="58d910ec6a"><path d="M 63.542969 491 L 121 491 L 121 521 L 63.542969 521 Z M 63.542969 491 "/></clipPath></defs><g id="c2cfc8a4ce"><g clip-rule="nonzero" clip-path="url(#39d8c1e29f)"><path style=" stroke:none;fill-rule:nonzero;fill:#00a0c8;fill-opacity:1;" d="M 106.226562 733.636719 L 106.226562 819.003906 C 106.226562 834.722656 118.960938 847.457031 134.679688 847.457031 L 675.320312 847.457031 C 691.042969 847.457031 703.773438 834.722656 703.773438 819.003906 L 703.773438 733.636719 C 703.773438 717.917969 691.042969 705.183594 675.320312 705.183594 L 134.679688 705.183594 C 118.960938 705.183594 106.226562 717.917969 106.226562 733.636719 Z M 106.226562 733.636719 "/></g><path style=" stroke:none;fill-rule:nonzero;fill:#0a5078;fill-opacity:1;" d="M 162.082031 362.632812 L 148.90625 705.183594 L 661.09375 705.183594 L 647.917969 362.632812 C 647.335938 347.351562 634.773438 335.273438 619.476562 335.273438 L 190.523438 335.273438 C 175.230469 335.273438 162.664062 347.351562 162.082031 362.632812 Z M 162.082031 362.632812 "/><g clip-rule="nonzero" clip-path="url(#f25ffc723f)"><path style=" stroke:none;fill-rule:nonzero;fill:#00a0c8;fill-opacity:1;" d="M 419.226562 178.769531 L 419.226562 249.90625 C 419.226562 257.761719 425.601562 264.136719 433.453125 264.136719 L 632.636719 264.136719 C 640.492188 264.136719 646.863281 257.761719 646.863281 249.90625 L 646.863281 178.769531 C 646.863281 170.917969 640.492188 164.542969 632.636719 164.542969 L 433.453125 164.542969 C 425.601562 164.542969 419.226562 170.917969 419.226562 178.769531 Z M 419.226562 178.769531 "/></g><path style=" stroke:none;fill-rule:nonzero;fill:#fab400;fill-opacity:1;" d="M 447.683594 392.179688 L 447.683594 434.863281 C 447.683594 442.71875 454.054688 449.089844 461.910156 449.089844 L 604.183594 449.089844 C 612.035156 449.089844 618.410156 442.71875 618.410156 434.863281 L 618.410156 392.179688 C 618.410156 384.328125 612.035156 377.953125 604.183594 377.953125 L 461.910156 377.953125 C 454.054688 377.953125 447.683594 384.328125 447.683594 392.179688 Z M 447.683594 392.179688 "/><path style=" stroke:none;fill-rule:nonzero;fill:#00325a;fill-opacity:1;" d="M 490.363281 648.273438 L 490.363281 662.5 C 490.363281 670.355469 496.738281 676.730469 504.589844 676.730469 L 589.957031 676.730469 C 597.808594 676.730469 604.183594 670.355469 604.183594 662.5 L 604.183594 648.273438 C 604.183594 640.421875 597.808594 634.046875 589.957031 634.046875 L 504.589844 634.046875 C 496.738281 634.046875 490.363281 640.421875 490.363281 648.273438 Z M 490.363281 648.273438 "/><path style=" stroke:none;fill-rule:nonzero;fill:#00325a;fill-opacity:1;" d="M 205.816406 506 L 205.816406 520.226562 C 205.816406 528.082031 212.191406 534.453125 220.042969 534.453125 L 234.273438 534.453125 C 242.125 534.453125 248.5 528.082031 248.5 520.226562 L 248.5 506 C 248.5 498.148438 242.125 491.773438 234.273438 491.773438 L 220.042969 491.773438 C 212.191406 491.773438 205.816406 498.148438 205.816406 506 Z M 205.816406 506 "/><path style=" stroke:none;fill-rule:nonzero;fill:#00325a;fill-opacity:1;" d="M 276.953125 506 L 276.953125 520.226562 C 276.953125 528.082031 283.328125 534.453125 291.179688 534.453125 L 305.410156 534.453125 C 313.261719 534.453125 319.636719 528.082031 319.636719 520.226562 L 319.636719 506 C 319.636719 498.148438 313.261719 491.773438 305.410156 491.773438 L 291.179688 491.773438 C 283.328125 491.773438 276.953125 498.148438 276.953125 506 Z M 276.953125 506 "/><path style=" stroke:none;fill-rule:nonzero;fill:#00325a;fill-opacity:1;" d="M 348.089844 506 L 348.089844 520.226562 C 348.089844 528.082031 354.464844 534.453125 362.316406 534.453125 L 376.546875 534.453125 C 384.398438 534.453125 390.773438 528.082031 390.773438 520.226562 L 390.773438 506 C 390.773438 498.148438 384.398438 491.773438 376.546875 491.773438 L 362.316406 491.773438 C 354.464844 491.773438 348.089844 498.148438 348.089844 506 Z M 348.089844 506 "/><path style=" stroke:none;fill-rule:nonzero;fill:#00325a;fill-opacity:1;" d="M 490.363281 506 L 490.363281 520.226562 C 490.363281 528.082031 496.738281 534.453125 504.589844 534.453125 L 518.820312 534.453125 C 526.671875 534.453125 533.046875 528.082031 533.046875 520.226562 L 533.046875 506 C 533.046875 498.148438 526.671875 491.773438 518.820312 491.773438 L 504.589844 491.773438 C 496.738281 491.773438 490.363281 498.148438 490.363281 506 Z M 490.363281 506 "/><path style=" stroke:none;fill-rule:nonzero;fill:#00325a;fill-opacity:1;" d="M 205.816406 577.136719 L 205.816406 591.363281 C 205.816406 599.21875 212.191406 605.59375 220.042969 605.59375 L 234.273438 605.59375 C 242.125 605.59375 248.5 599.21875 248.5 591.363281 L 248.5 577.136719 C 248.5 569.285156 242.125 562.910156 234.273438 562.910156 L 220.042969 562.910156 C 212.191406 562.910156 205.816406 569.285156 205.816406 577.136719 Z M 205.816406 577.136719 "/><path style=" stroke:none;fill-rule:nonzero;fill:#00325a;fill-opacity:1;" d="M 276.953125 577.136719 L 276.953125 591.363281 C 276.953125 599.21875 283.328125 605.59375 291.179688 605.59375 L 305.410156 605.59375 C 313.261719 605.59375 319.636719 599.21875 319.636719 591.363281 L 319.636719 577.136719 C 319.636719 569.285156 313.261719 562.910156 305.410156 562.910156 L 291.179688 562.910156 C 283.328125 562.910156 276.953125 569.285156 276.953125 577.136719 Z M 276.953125 577.136719 "/><path style=" stroke:none;fill-rule:nonzero;fill:#00325a;fill-opacity:1;" d="M 348.089844 577.136719 L 348.089844 591.363281 C 348.089844 599.21875 354.464844 605.59375 362.316406 605.59375 L 376.546875 605.59375 C 384.398438 605.59375 390.773438 599.21875 390.773438 591.363281 L 390.773438 577.136719 C 390.773438 569.285156 384.398438 562.910156 376.546875 562.910156 L 362.316406 562.910156 C 354.464844 562.910156 348.089844 569.285156 348.089844 577.136719 Z M 348.089844 577.136719 "/><path style=" stroke:none;fill-rule:nonzero;fill:#00325a;fill-opacity:1;" d="M 490.363281 577.136719 L 490.363281 591.363281 C 490.363281 599.21875 496.738281 605.59375 504.589844 605.59375 L 518.820312 605.59375 C 526.671875 605.59375 533.046875 599.21875 533.046875 591.363281 L 533.046875 577.136719 C 533.046875 569.285156 526.671875 562.910156 518.820312 562.910156 L 504.589844 562.910156 C 496.738281 562.910156 490.363281 569.285156 490.363281 577.136719 Z M 490.363281 577.136719 "/><path style=" stroke:none;fill-rule:nonzero;fill:#00325a;fill-opacity:1;" d="M 561.5 506 L 561.5 520.226562 C 561.5 528.082031 567.875 534.453125 575.726562 534.453125 L 589.957031 534.453125 C 597.808594 534.453125 604.183594 528.082031 604.183594 520.226562 L 604.183594 506 C 604.183594 498.148438 597.808594 491.773438 589.957031 491.773438 L 575.726562 491.773438 C 567.875 491.773438 561.5 498.148438 561.5 506 Z M 561.5 506 "/><path style=" stroke:none;fill-rule:nonzero;fill:#00325a;fill-opacity:1;" d="M 561.5 577.136719 L 561.5 591.363281 C 561.5 599.21875 567.875 605.59375 575.726562 605.59375 L 589.957031 605.59375 C 597.808594 605.59375 604.183594 599.21875 604.183594 591.363281 L 604.183594 577.136719 C 604.183594 569.285156 597.808594 562.910156 589.957031 562.910156 L 575.726562 562.910156 C 567.875 562.910156 561.5 569.285156 561.5 577.136719 Z M 561.5 577.136719 "/><path style=" stroke:none;fill-rule:nonzero;fill:#00325a;fill-opacity:1;" d="M 419.226562 506 L 419.226562 520.226562 C 419.226562 528.082031 425.601562 534.453125 433.453125 534.453125 L 447.683594 534.453125 C 455.535156 534.453125 461.910156 528.082031 461.910156 520.226562 L 461.910156 506 C 461.910156 498.148438 455.535156 491.773438 447.683594 491.773438 L 433.453125 491.773438 C 425.601562 491.773438 419.226562 498.148438 419.226562 506 Z M 419.226562 506 "/><path style=" stroke:none;fill-rule:nonzero;fill:#00325a;fill-opacity:1;" d="M 419.226562 577.136719 L 419.226562 591.363281 C 419.226562 599.21875 425.601562 605.59375 433.453125 605.59375 L 447.683594 605.59375 C 455.535156 605.59375 461.910156 599.21875 461.910156 591.363281 L 461.910156 577.136719 C 461.910156 569.285156 455.535156 562.910156 447.683594 562.910156 L 433.453125 562.910156 C 425.601562 562.910156 419.226562 569.285156 419.226562 577.136719 Z M 419.226562 577.136719 "/><path style=" stroke:none;fill-rule:nonzero;fill:#00325a;fill-opacity:1;" d="M 419.226562 648.273438 L 419.226562 662.5 C 419.226562 670.355469 425.601562 676.730469 433.453125 676.730469 L 447.683594 676.730469 C 455.535156 676.730469 461.910156 670.355469 461.910156 662.5 L 461.910156 648.273438 C 461.910156 640.421875 455.535156 634.046875 447.683594 634.046875 L 433.453125 634.046875 C 425.601562 634.046875 419.226562 640.421875 419.226562 648.273438 Z M 419.226562 648.273438 "/><path style=" stroke:none;fill-rule:nonzero;fill:#00325a;fill-opacity:1;" d="M 348.089844 648.273438 L 348.089844 662.5 C 348.089844 670.355469 354.464844 676.730469 362.316406 676.730469 L 376.546875 676.730469 C 384.398438 676.730469 390.773438 670.355469 390.773438 662.5 L 390.773438 648.273438 C 390.773438 640.421875 384.398438 634.046875 376.546875 634.046875 L 362.316406 634.046875 C 354.464844 634.046875 348.089844 640.421875 348.089844 648.273438 Z M 348.089844 648.273438 "/><path style=" stroke:none;fill-rule:nonzero;fill:#00325a;fill-opacity:1;" d="M 205.816406 648.273438 L 205.816406 662.5 C 205.816406 670.355469 212.191406 676.730469 220.042969 676.730469 L 234.273438 676.730469 C 242.125 676.730469 248.5 670.355469 248.5 662.5 L 248.5 648.273438 C 248.5 640.421875 242.125 634.046875 234.273438 634.046875 L 220.042969 634.046875 C 212.191406 634.046875 205.816406 640.421875 205.816406 648.273438 Z M 205.816406 648.273438 "/><path style=" stroke:none;fill-rule:nonzero;fill:#00325a;fill-opacity:1;" d="M 276.953125 648.273438 L 276.953125 662.5 C 276.953125 670.355469 283.328125 676.730469 291.179688 676.730469 L 305.410156 676.730469 C 313.261719 676.730469 319.636719 670.355469 319.636719 662.5 L 319.636719 648.273438 C 319.636719 640.421875 313.261719 634.046875 305.410156 634.046875 L 291.179688 634.046875 C 283.328125 634.046875 276.953125 640.421875 276.953125 648.273438 Z M 276.953125 648.273438 "/><path style=" stroke:none;fill-rule:nonzero;fill:#c80a50;fill-opacity:1;" d="M 490.363281 634.046875 L 490.363281 648.273438 C 490.363281 656.128906 496.738281 662.5 504.589844 662.5 L 589.957031 662.5 C 597.808594 662.5 604.183594 656.128906 604.183594 648.273438 L 604.183594 634.046875 C 604.183594 626.191406 597.808594 619.820312 589.957031 619.820312 L 504.589844 619.820312 C 496.738281 619.820312 490.363281 626.191406 490.363281 634.046875 Z M 490.363281 634.046875 "/><path style=" stroke:none;fill-rule:nonzero;fill:#f0f0f0;fill-opacity:1;" d="M 205.816406 491.773438 L 205.816406 506 C 205.816406 513.855469 212.191406 520.226562 220.042969 520.226562 L 234.273438 520.226562 C 242.125 520.226562 248.5 513.855469 248.5 506 L 248.5 491.773438 C 248.5 483.917969 242.125 477.546875 234.273438 477.546875 L 220.042969 477.546875 C 212.191406 477.546875 205.816406 483.917969 205.816406 491.773438 Z M 205.816406 491.773438 "/><path style=" stroke:none;fill-rule:nonzero;fill:#f0f0f0;fill-opacity:1;" d="M 276.953125 491.773438 L 276.953125 506 C 276.953125 513.855469 283.328125 520.226562 291.179688 520.226562 L 305.410156 520.226562 C 313.261719 520.226562 319.636719 513.855469 319.636719 506 L 319.636719 491.773438 C 319.636719 483.917969 313.261719 477.546875 305.410156 477.546875 L 291.179688 477.546875 C 283.328125 477.546875 276.953125 483.917969 276.953125 491.773438 Z M 276.953125 491.773438 "/><path style=" stroke:none;fill-rule:nonzero;fill:#f0f0f0;fill-opacity:1;" d="M 348.089844 491.773438 L 348.089844 506 C 348.089844 513.855469 354.464844 520.226562 362.316406 520.226562 L 376.546875 520.226562 C 384.398438 520.226562 390.773438 513.855469 390.773438 506 L 390.773438 491.773438 C 390.773438 483.917969 384.398438 477.546875 376.546875 477.546875 L 362.316406 477.546875 C 354.464844 477.546875 348.089844 483.917969 348.089844 491.773438 Z M 348.089844 491.773438 "/><path style=" stroke:none;fill-rule:nonzero;fill:#f0f0f0;fill-opacity:1;" d="M 490.363281 491.773438 L 490.363281 506 C 490.363281 513.855469 496.738281 520.226562 504.589844 520.226562 L 518.820312 520.226562 C 526.671875 520.226562 533.046875 513.855469 533.046875 506 L 533.046875 491.773438 C 533.046875 483.917969 526.671875 477.546875 518.820312 477.546875 L 504.589844 477.546875 C 496.738281 477.546875 490.363281 483.917969 490.363281 491.773438 Z M 490.363281 491.773438 "/><path style=" stroke:none;fill-rule:nonzero;fill:#f0f0f0;fill-opacity:1;" d="M 205.816406 562.910156 L 205.816406 577.136719 C 205.816406 584.992188 212.191406 591.363281 220.042969 591.363281 L 234.273438 591.363281 C 242.125 591.363281 248.5 584.992188 248.5 577.136719 L 248.5 562.910156 C 248.5 555.054688 242.125 548.683594 234.273438 548.683594 L 220.042969 548.683594 C 212.191406 548.683594 205.816406 555.054688 205.816406 562.910156 Z M 205.816406 562.910156 "/><path style=" stroke:none;fill-rule:nonzero;fill:#f0f0f0;fill-opacity:1;" d="M 276.953125 562.910156 L 276.953125 577.136719 C 276.953125 584.992188 283.328125 591.363281 291.179688 591.363281 L 305.410156 591.363281 C 313.261719 591.363281 319.636719 584.992188 319.636719 577.136719 L 319.636719 562.910156 C 319.636719 555.054688 313.261719 548.683594 305.410156 548.683594 L 291.179688 548.683594 C 283.328125 548.683594 276.953125 555.054688 276.953125 562.910156 Z M 276.953125 562.910156 "/><path style=" stroke:none;fill-rule:nonzero;fill:#f0f0f0;fill-opacity:1;" d="M 348.089844 562.910156 L 348.089844 577.136719 C 348.089844 584.992188 354.464844 591.363281 362.316406 591.363281 L 376.546875 591.363281 C 384.398438 591.363281 390.773438 584.992188 390.773438 577.136719 L 390.773438 562.910156 C 390.773438 555.054688 384.398438 548.683594 376.546875 548.683594 L 362.316406 548.683594 C 354.464844 548.683594 348.089844 555.054688 348.089844 562.910156 Z M 348.089844 562.910156 "/><path style=" stroke:none;fill-rule:nonzero;fill:#f0f0f0;fill-opacity:1;" d="M 490.363281 562.910156 L 490.363281 577.136719 C 490.363281 584.992188 496.738281 591.363281 504.589844 591.363281 L 518.820312 591.363281 C 526.671875 591.363281 533.046875 584.992188 533.046875 577.136719 L 533.046875 562.910156 C 533.046875 555.054688 526.671875 548.683594 518.820312 548.683594 L 504.589844 548.683594 C 496.738281 548.683594 490.363281 555.054688 490.363281 562.910156 Z M 490.363281 562.910156 "/><path style=" stroke:none;fill-rule:nonzero;fill:#f0f0f0;fill-opacity:1;" d="M 561.5 491.773438 L 561.5 506 C 561.5 513.855469 567.875 520.226562 575.726562 520.226562 L 589.957031 520.226562 C 597.808594 520.226562 604.183594 513.855469 604.183594 506 L 604.183594 491.773438 C 604.183594 483.917969 597.808594 477.546875 589.957031 477.546875 L 575.726562 477.546875 C 567.875 477.546875 561.5 483.917969 561.5 491.773438 Z M 561.5 491.773438 "/><path style=" stroke:none;fill-rule:nonzero;fill:#f0f0f0;fill-opacity:1;" d="M 561.5 562.910156 L 561.5 577.136719 C 561.5 584.992188 567.875 591.363281 575.726562 591.363281 L 589.957031 591.363281 C 597.808594 591.363281 604.183594 584.992188 604.183594 577.136719 L 604.183594 562.910156 C 604.183594 555.054688 597.808594 548.683594 589.957031 548.683594 L 575.726562 548.683594 C 567.875 548.683594 561.5 555.054688 561.5 562.910156 Z M 561.5 562.910156 "/><path style=" stroke:none;fill-rule:nonzero;fill:#f0f0f0;fill-opacity:1;" d="M 419.226562 491.773438 L 419.226562 506 C 419.226562 513.855469 425.601562 520.226562 433.453125 520.226562 L 447.683594 520.226562 C 455.535156 520.226562 461.910156 513.855469 461.910156 506 L 461.910156 491.773438 C 461.910156 483.917969 455.535156 477.546875 447.683594 477.546875 L 433.453125 477.546875 C 425.601562 477.546875 419.226562 483.917969 419.226562 491.773438 Z M 419.226562 491.773438 "/><path style=" stroke:none;fill-rule:nonzero;fill:#f0f0f0;fill-opacity:1;" d="M 419.226562 562.910156 L 419.226562 577.136719 C 419.226562 584.992188 425.601562 591.363281 433.453125 591.363281 L 447.683594 591.363281 C 455.535156 591.363281 461.910156 584.992188 461.910156 577.136719 L 461.910156 562.910156 C 461.910156 555.054688 455.535156 548.683594 447.683594 548.683594 L 433.453125 548.683594 C 425.601562 548.683594 419.226562 555.054688 419.226562 562.910156 Z M 419.226562 562.910156 "/><path style=" stroke:none;fill-rule:nonzero;fill:#f0f0f0;fill-opacity:1;" d="M 419.226562 634.046875 L 419.226562 648.273438 C 419.226562 656.128906 425.601562 662.5 433.453125 662.5 L 447.683594 662.5 C 455.535156 662.5 461.910156 656.128906 461.910156 648.273438 L 461.910156 634.046875 C 461.910156 626.191406 455.535156 619.820312 447.683594 619.820312 L 433.453125 619.820312 C 425.601562 619.820312 419.226562 626.191406 419.226562 634.046875 Z M 419.226562 634.046875 "/><path style=" stroke:none;fill-rule:nonzero;fill:#f0f0f0;fill-opacity:1;" d="M 348.089844 634.046875 L 348.089844 648.273438 C 348.089844 656.128906 354.464844 662.5 362.316406 662.5 L 376.546875 662.5 C 384.398438 662.5 390.773438 656.128906 390.773438 648.273438 L 390.773438 634.046875 C 390.773438 626.191406 384.398438 619.820312 376.546875 619.820312 L 362.316406 619.820312 C 354.464844 619.820312 348.089844 626.191406 348.089844 634.046875 Z M 348.089844 634.046875 "/><path style=" stroke:none;fill-rule:nonzero;fill:#f0f0f0;fill-opacity:1;" d="M 205.816406 634.046875 L 205.816406 648.273438 C 205.816406 656.128906 212.191406 662.5 220.042969 662.5 L 234.273438 662.5 C 242.125 662.5 248.5 656.128906 248.5 648.273438 L 248.5 634.046875 C 248.5 626.191406 242.125 619.820312 234.273438 619.820312 L 220.042969 619.820312 C 212.191406 619.820312 205.816406 626.191406 205.816406 634.046875 Z M 205.816406 634.046875 "/><path style=" stroke:none;fill-rule:nonzero;fill:#f0f0f0;fill-opacity:1;" d="M 276.953125 634.046875 L 276.953125 648.273438 C 276.953125 656.128906 283.328125 662.5 291.179688 662.5 L 305.410156 662.5 C 313.261719 662.5 319.636719 656.128906 319.636719 648.273438 L 319.636719 634.046875 C 319.636719 626.191406 313.261719 619.820312 305.410156 619.820312 L 291.179688 619.820312 C 283.328125 619.820312 276.953125 626.191406 276.953125 634.046875 Z M 276.953125 634.046875 "/><path style=" stroke:none;fill-rule:nonzero;fill:#0a5078;fill-opacity:1;" d="M 504.589844 335.273438 L 504.589844 235.679688 C 504.589844 219.960938 517.324219 207.226562 533.046875 207.226562 C 548.769531 207.226562 561.5 219.960938 561.5 235.679688 L 561.5 335.273438 Z M 504.589844 335.273438 "/><g clip-rule="nonzero" clip-path="url(#4c44afc966)"><path style=" stroke:none;fill-rule:nonzero;fill:#00a0c8;fill-opacity:1;" d="M 732.230469 491.773438 L 703.773438 491.773438 C 695.90625 491.773438 689.546875 498.148438 689.546875 506 C 689.546875 513.855469 695.90625 520.226562 703.773438 520.226562 L 732.230469 520.226562 C 740.097656 520.226562 746.457031 513.855469 746.457031 506 C 746.457031 498.148438 740.097656 491.773438 732.230469 491.773438 Z M 732.230469 491.773438 "/></g><path style=" stroke:none;fill-rule:nonzero;fill:#c80a50;fill-opacity:1;" d="M 693.714844 410.578125 L 673.597656 430.695312 C 668.035156 436.257812 668.035156 445.25 673.597656 450.8125 C 679.160156 456.375 688.152344 456.375 693.714844 450.8125 L 713.832031 430.695312 C 719.394531 425.132812 719.394531 416.140625 713.832031 410.578125 C 708.269531 405.015625 699.277344 405.015625 693.714844 410.578125 Z M 693.714844 410.578125 "/><path style=" stroke:none;fill-rule:nonzero;fill:#fab400;fill-opacity:1;" d="M 673.597656 561.1875 C 668.035156 566.75 668.035156 575.742188 673.597656 581.304688 L 693.714844 601.421875 C 699.277344 606.984375 708.269531 606.984375 713.832031 601.421875 C 719.394531 595.859375 719.394531 586.867188 713.832031 581.304688 L 693.714844 561.1875 C 688.152344 555.625 679.160156 555.625 673.597656 561.1875 Z M 673.597656 561.1875 "/><g clip-rule="nonzero" clip-path="url(#58d910ec6a)"><path style=" stroke:none;fill-rule:nonzero;fill:#00a0c8;fill-opacity:1;" d="M 77.769531 520.226562 L 106.226562 520.226562 C 114.09375 520.226562 120.453125 513.855469 120.453125 506 C 120.453125 498.148438 114.09375 491.773438 106.226562 491.773438 L 77.769531 491.773438 C 69.902344 491.773438 63.542969 498.148438 63.542969 506 C 63.542969 513.855469 69.902344 520.226562 77.769531 520.226562 Z M 77.769531 520.226562 "/></g><path style=" stroke:none;fill-rule:nonzero;fill:#c80a50;fill-opacity:1;" d="M 116.285156 601.421875 L 136.402344 581.304688 C 141.964844 575.742188 141.964844 566.75 136.402344 561.1875 C 130.839844 555.625 121.847656 555.625 116.285156 561.1875 L 96.167969 581.304688 C 90.605469 586.867188 90.605469 595.859375 96.167969 601.421875 C 101.730469 606.984375 110.722656 606.984375 116.285156 601.421875 Z M 116.285156 601.421875 "/><path style=" stroke:none;fill-rule:nonzero;fill:#fab400;fill-opacity:1;" d="M 136.402344 450.8125 C 141.964844 445.25 141.964844 436.257812 136.402344 430.695312 L 116.285156 410.578125 C 110.722656 405.015625 101.730469 405.015625 96.167969 410.578125 C 90.605469 416.140625 90.605469 425.132812 96.167969 430.695312 L 116.285156 450.8125 C 121.847656 456.375 130.839844 456.375 136.402344 450.8125 Z M 136.402344 450.8125 "/><path style=" stroke:none;fill-rule:nonzero;fill:#f0f0f0;fill-opacity:1;" d="M 390.773438 207.226562 L 390.773438 420.636719 L 220.042969 420.636719 L 220.042969 207.226562 C 220.042969 203.457031 221.539062 199.828125 224.214844 197.167969 L 238.441406 182.941406 C 244.003906 177.378906 253.007812 177.378906 258.558594 182.941406 L 266.894531 191.277344 C 272.457031 196.839844 281.464844 196.839844 287.011719 191.277344 L 295.351562 182.941406 C 300.914062 177.378906 309.917969 177.378906 315.46875 182.941406 L 323.804688 191.277344 C 329.367188 196.839844 338.375 196.839844 343.921875 191.277344 L 352.257812 182.941406 C 357.824219 177.378906 366.828125 177.378906 372.378906 182.941406 L 386.605469 197.167969 C 389.277344 199.828125 390.773438 203.457031 390.773438 207.226562 Z M 390.773438 207.226562 "/><path style=" stroke:none;fill-rule:nonzero;fill:#00a0c8;fill-opacity:1;" d="M 205.816406 434.863281 C 205.816406 442.71875 212.191406 449.089844 220.042969 449.089844 L 390.773438 449.089844 C 398.625 449.089844 405 442.71875 405 434.863281 C 405 427.011719 398.625 420.636719 390.773438 420.636719 L 220.042969 420.636719 C 212.191406 420.636719 205.816406 427.011719 205.816406 434.863281 Z M 205.816406 434.863281 "/><path style=" stroke:none;fill-rule:nonzero;fill:#c80a50;fill-opacity:1;" d="M 307.484375 377.953125 L 303.332031 377.953125 C 280.9375 377.953125 262.726562 359.742188 262.726562 337.347656 L 262.726562 335.273438 C 262.726562 327.417969 269.101562 321.042969 276.953125 321.042969 C 284.808594 321.042969 291.179688 327.417969 291.179688 335.273438 L 291.179688 337.347656 C 291.179688 344.050781 296.628906 349.5 303.332031 349.5 L 307.484375 349.5 C 314.1875 349.5 319.636719 344.050781 319.636719 337.347656 C 319.636719 332.710938 317.0625 328.542969 312.90625 326.464844 L 285.164062 312.609375 C 271.320312 305.679688 262.726562 291.75 262.726562 276.285156 C 262.726562 253.890625 280.9375 235.679688 303.332031 235.679688 L 307.484375 235.679688 C 329.878906 235.679688 348.089844 253.890625 348.089844 276.285156 L 348.089844 278.363281 C 348.089844 286.214844 341.71875 292.589844 333.863281 292.589844 C 326.011719 292.589844 319.636719 286.214844 319.636719 278.363281 L 319.636719 276.285156 C 319.636719 269.585938 314.1875 264.136719 307.484375 264.136719 L 303.332031 264.136719 C 296.628906 264.136719 291.179688 269.585938 291.179688 276.285156 C 291.179688 280.921875 293.757812 285.09375 297.910156 287.167969 L 325.65625 301.027344 C 339.496094 307.957031 348.089844 321.882812 348.089844 337.347656 C 348.089844 359.742188 329.878906 377.953125 307.484375 377.953125 Z M 307.484375 377.953125 "/><path style=" stroke:none;fill-rule:nonzero;fill:#c80a50;fill-opacity:1;" d="M 305.410156 264.136719 C 297.554688 264.136719 291.179688 257.761719 291.179688 249.90625 L 291.179688 228.566406 C 291.179688 220.714844 297.554688 214.339844 305.410156 214.339844 C 313.261719 214.339844 319.636719 220.714844 319.636719 228.566406 L 319.636719 249.90625 C 319.636719 257.761719 313.261719 264.136719 305.410156 264.136719 Z M 305.410156 264.136719 "/><path style=" stroke:none;fill-rule:nonzero;fill:#c80a50;fill-opacity:1;" d="M 305.410156 399.296875 C 297.554688 399.296875 291.179688 392.921875 291.179688 385.066406 L 291.179688 363.726562 C 291.179688 355.875 297.554688 349.5 305.410156 349.5 C 313.261719 349.5 319.636719 355.875 319.636719 363.726562 L 319.636719 385.066406 C 319.636719 392.921875 313.261719 399.296875 305.410156 399.296875 Z M 305.410156 399.296875 "/><path style=" stroke:none;fill-rule:nonzero;fill:#fab400;fill-opacity:1;" d="M 561.5 306.816406 L 504.589844 306.816406 C 496.738281 306.816406 490.363281 313.191406 490.363281 321.042969 L 490.363281 335.273438 L 575.726562 335.273438 L 575.726562 321.042969 C 575.726562 313.191406 569.355469 306.816406 561.5 306.816406 Z M 561.5 306.816406 "/><path style=" stroke:none;fill-rule:nonzero;fill:#0a5078;fill-opacity:1;" d="M 589.957031 819.003906 L 148.90625 819.003906 C 141.054688 819.003906 134.679688 812.628906 134.679688 804.773438 L 134.679688 747.867188 C 134.679688 740.011719 141.054688 733.636719 148.90625 733.636719 L 589.957031 733.636719 C 597.808594 733.636719 604.183594 740.011719 604.183594 747.867188 L 604.183594 804.773438 C 604.183594 812.628906 597.808594 819.003906 589.957031 819.003906 Z M 589.957031 819.003906 "/><path style=" stroke:none;fill-rule:nonzero;fill:#0a5078;fill-opacity:1;" d="M 661.09375 754.980469 L 632.636719 754.980469 C 628.710938 754.980469 625.523438 751.792969 625.523438 747.867188 C 625.523438 743.9375 628.710938 740.75 632.636719 740.75 L 661.09375 740.75 C 665.019531 740.75 668.207031 743.9375 668.207031 747.867188 C 668.207031 751.792969 665.019531 754.980469 661.09375 754.980469 Z M 661.09375 754.980469 "/><path style=" stroke:none;fill-rule:nonzero;fill:#0a5078;fill-opacity:1;" d="M 661.09375 783.433594 L 632.636719 783.433594 C 628.710938 783.433594 625.523438 780.246094 625.523438 776.320312 C 625.523438 772.394531 628.710938 769.207031 632.636719 769.207031 L 661.09375 769.207031 C 665.019531 769.207031 668.207031 772.394531 668.207031 776.320312 C 668.207031 780.246094 665.019531 783.433594 661.09375 783.433594 Z M 661.09375 783.433594 "/><path style=" stroke:none;fill-rule:nonzero;fill:#0a5078;fill-opacity:1;" d="M 661.09375 811.886719 L 632.636719 811.886719 C 628.710938 811.886719 625.523438 808.703125 625.523438 804.773438 C 625.523438 800.847656 628.710938 797.660156 632.636719 797.660156 L 661.09375 797.660156 C 665.019531 797.660156 668.207031 800.847656 668.207031 804.773438 C 668.207031 808.703125 665.019531 811.886719 661.09375 811.886719 Z M 661.09375 811.886719 "/><path style=" stroke:none;fill-rule:nonzero;fill:#00325a;fill-opacity:1;" d="M 405 776.320312 L 333.863281 776.320312 C 318.140625 776.320312 305.410156 763.585938 305.410156 747.867188 L 305.410156 733.636719 L 433.453125 733.636719 L 433.453125 747.867188 C 433.453125 763.585938 420.722656 776.320312 405 776.320312 Z M 405 776.320312 "/></g></svg>