<svg xmlns="http://www.w3.org/2000/svg" xmlns:xlink="http://www.w3.org/1999/xlink" width="1080" zoomAndPan="magnify" viewBox="0 0 810 1012.49997" height="1350" preserveAspectRatio="xMidYMid meet" version="1.2"><defs><clipPath id="866b726e4e"><path d="M 563 124.171875 L 675 124.171875 L 675 235 L 563 235 Z M 563 124.171875 "/></clipPath><clipPath id="552f6b5a45"><path d="M 510 740 L 728 740 L 728 848.316406 L 510 848.316406 Z M 510 740 "/></clipPath></defs><g id="4aa8a03087"><path style=" stroke:none;fill-rule:nonzero;fill:#9ab0e0;fill-opacity:1;" d="M 246.144531 427.664062 C 246.144531 458.101562 221.476562 482.777344 191.039062 482.777344 C 160.605469 482.777344 135.9375 458.101562 135.9375 427.664062 C 135.9375 397.222656 160.605469 372.550781 191.039062 372.550781 C 221.476562 372.550781 246.144531 397.222656 246.144531 427.664062 "/><path style=" stroke:none;fill-rule:nonzero;fill:#192646;fill-opacity:1;" d="M 299.5 599.9375 C 299.132812 540.335938 250.742188 492.085938 191.039062 492.085938 C 131.335938 492.085938 82.9375 540.335938 82.5625 599.9375 L 299.5 599.9375 "/><g clip-rule="nonzero" clip-path="url(#866b726e4e)"><path style=" stroke:none;fill-rule:nonzero;fill:#9ab0e0;fill-opacity:1;" d="M 674.136719 179.25 C 674.136719 209.691406 649.46875 234.363281 619.03125 234.363281 C 588.597656 234.363281 563.929688 209.691406 563.929688 179.25 C 563.929688 148.808594 588.597656 124.136719 619.03125 124.136719 C 649.46875 124.136719 674.136719 148.808594 674.136719 179.25 "/></g><path style=" stroke:none;fill-rule:nonzero;fill:#f2ac34;fill-opacity:1;" d="M 727.527344 351.5625 C 727.125 291.921875 678.734375 243.707031 619.03125 243.707031 C 559.328125 243.707031 510.902344 291.921875 510.574219 351.5625 L 727.527344 351.5625 "/><path style=" stroke:none;fill-rule:nonzero;fill:#9ab0e0;fill-opacity:1;" d="M 674.136719 676.074219 C 674.136719 706.515625 649.46875 731.191406 619.03125 731.191406 C 588.597656 731.191406 563.929688 706.515625 563.929688 676.074219 C 563.929688 645.636719 588.597656 620.925781 619.03125 620.925781 C 649.46875 620.925781 674.136719 645.636719 674.136719 676.074219 "/><g clip-rule="nonzero" clip-path="url(#552f6b5a45)"><path style=" stroke:none;fill-rule:nonzero;fill:#d54050;fill-opacity:1;" d="M 727.527344 848.351562 C 727.125 788.75 678.734375 740.496094 619.03125 740.496094 C 559.328125 740.496094 510.902344 788.75 510.574219 848.351562 L 727.527344 848.351562 "/></g><path style="fill:none;stroke-width:30;stroke-linecap:round;stroke-linejoin:round;stroke:#f2ac34;stroke-opacity:1;stroke-miterlimit:10;" d="M 1598.699149 1650.598359 L 2036.398303 1300.3972 " transform="matrix(0.364932,0,0,-0.364991,-272.131472,1262.215458)"/><path style="fill:none;stroke-width:30;stroke-linecap:round;stroke-linejoin:round;stroke:#f2ac34;stroke-opacity:1;stroke-miterlimit:10;" d="M 1598.699149 2149.60451 L 2036.398303 2499.794968 " transform="matrix(0.364932,0,0,-0.364991,-272.131472,1262.215458)"/><path style="fill:none;stroke-width:30;stroke-linecap:round;stroke-linejoin:round;stroke:#f2ac34;stroke-opacity:1;stroke-miterlimit:10;" d="M 1995.701519 2525.202264 L 2053.203655 2516.501282 L 2044.501266 2445.202458 " transform="matrix(0.364932,0,0,-0.364991,-272.131472,1262.215458)"/><path style="fill:none;stroke-width:30;stroke-linecap:round;stroke-linejoin:round;stroke:#f2ac34;stroke-opacity:1;stroke-miterlimit:10;" d="M 1995.701519 1272.399943 L 2053.203655 1281.100925 L 2044.501266 1352.399749 " transform="matrix(0.364932,0,0,-0.364991,-272.131472,1262.215458)"/></g></svg>