<svg xmlns="http://www.w3.org/2000/svg" xmlns:xlink="http://www.w3.org/1999/xlink" width="1080" zoomAndPan="magnify" viewBox="0 0 810 1012.49997" height="1350" preserveAspectRatio="xMidYMid meet" version="1.2"><g id="3e7b3fa54b"><path style=" stroke:none;fill-rule:nonzero;fill:#ff5959;fill-opacity:1;" d="M 237.195312 344.261719 C 253.515625 354.964844 263.953125 371.273438 267.632812 388.980469 C 271.3125 406.691406 268.242188 425.804688 257.539062 442.125 L 156.734375 595.859375 C 135.332031 628.503906 91.523438 637.613281 58.878906 616.210938 C 42.554688 605.507812 32.113281 589.203125 28.433594 571.492188 C 24.753906 553.78125 27.824219 534.671875 38.527344 518.347656 L 139.332031 364.613281 C 160.738281 331.96875 204.554688 322.859375 237.195312 344.261719 Z M 237.195312 344.261719 "/><path style=" stroke:none;fill-rule:nonzero;fill:#f9d2d2;fill-opacity:1;" d="M 237.195312 344.261719 C 253.515625 354.964844 263.953125 371.273438 267.632812 388.980469 C 271.3125 406.691406 268.242188 425.804688 257.539062 442.125 L 207.648438 518.222656 L 89.4375 440.710938 L 139.335938 364.609375 C 160.738281 331.96875 204.554688 322.859375 237.195312 344.261719 Z M 237.195312 344.261719 "/><path style=" stroke:none;fill-rule:nonzero;fill:#ffffff;fill-opacity:0.3;" d="M 186.839844 369.128906 L 67.0625 551.8125 C 63.691406 556.945312 56.734375 558.398438 51.59375 555.027344 C 46.457031 551.65625 45.007812 544.699219 48.378906 539.558594 L 168.15625 356.878906 C 171.527344 351.742188 178.484375 350.289062 183.625 353.660156 C 188.761719 357.027344 190.207031 363.988281 186.839844 369.128906 Z M 186.839844 369.128906 "/><path style=" stroke:none;fill-rule:nonzero;fill:#8fd2f9;fill-opacity:1;" d="M 637.367188 310.175781 C 632.648438 332.101562 619.488281 350.039062 602.03125 361.320312 C 584.570312 372.597656 562.808594 377.214844 540.878906 372.496094 L 334.355469 328.0625 C 290.5 318.625 262.601562 275.425781 272.039062 231.574219 C 276.753906 209.644531 289.910156 191.703125 307.371094 180.425781 C 324.832031 169.152344 346.59375 164.53125 368.523438 169.25 L 575.046875 213.683594 C 618.898438 223.117188 646.800781 266.316406 637.367188 310.175781 Z M 637.367188 310.175781 "/><path style=" stroke:none;fill-rule:nonzero;fill:#bae3f7;fill-opacity:1;" d="M 637.367188 310.175781 C 632.648438 332.101562 619.488281 350.039062 602.03125 361.320312 C 584.570312 372.597656 562.808594 377.214844 540.878906 372.496094 L 438.648438 350.5 L 472.816406 191.6875 L 575.046875 213.683594 C 618.898438 223.117188 646.800781 266.316406 637.367188 310.175781 Z M 637.367188 310.175781 "/><path style=" stroke:none;fill-rule:nonzero;fill:#ffffff;fill-opacity:0.3;" d="M 589.867188 266.480469 L 344.453125 213.679688 C 337.554688 212.191406 333.121094 205.332031 334.605469 198.429688 C 336.089844 191.527344 342.953125 187.09375 349.851562 188.578125 L 595.265625 241.378906 C 602.164062 242.867188 606.597656 249.726562 605.113281 256.628906 C 603.632812 263.53125 596.769531 267.964844 589.867188 266.480469 Z M 589.867188 266.480469 "/><path style=" stroke:none;fill-rule:nonzero;fill:#f67893;fill-opacity:1;" d="M 498.089844 453.285156 C 551.449219 503.449219 555.835938 586.183594 509.398438 641.621094 C 507.699219 643.65625 505.933594 645.648438 504.089844 647.605469 C 502.253906 649.5625 500.371094 651.445312 498.449219 653.269531 C 445.980469 703.042969 363.140625 703.773438 309.777344 653.613281 C 256.414062 603.449219 252.027344 520.71875 298.46875 465.273438 C 300.171875 463.242188 301.933594 461.25 303.773438 459.292969 C 305.609375 457.335938 307.496094 455.449219 309.417969 453.628906 C 361.882812 403.855469 444.730469 403.121094 498.089844 453.285156 Z M 498.089844 453.285156 "/><path style=" stroke:none;fill-rule:nonzero;fill:#ffbbc5;fill-opacity:1;" d="M 489.589844 434.324219 C 542.945312 484.488281 547.332031 567.222656 500.898438 622.664062 C 499.195312 624.695312 497.429688 626.6875 495.589844 628.648438 C 493.75 630.601562 491.871094 632.488281 489.945312 634.308594 C 437.476562 684.082031 354.640625 684.816406 301.277344 634.652344 C 247.914062 584.492188 243.527344 501.761719 289.96875 446.316406 C 291.667969 444.28125 293.433594 442.289062 295.269531 440.335938 C 297.109375 438.375 298.996094 436.492188 300.914062 434.667969 C 353.382812 384.894531 436.230469 384.164062 489.589844 434.324219 Z M 489.589844 434.324219 "/><path style=" stroke:none;fill-rule:nonzero;fill:#f67893;fill-opacity:1;" d="M 300.917969 434.664062 L 500.898438 622.660156 C 499.195312 624.691406 497.429688 626.683594 495.589844 628.644531 C 493.75 630.597656 491.871094 632.484375 489.945312 634.304688 L 289.972656 446.316406 C 291.671875 444.28125 293.4375 442.289062 295.273438 440.335938 C 297.113281 438.375 299 436.488281 300.917969 434.664062 Z M 300.917969 434.664062 "/><path style=" stroke:none;fill-rule:nonzero;fill:#edcb3a;fill-opacity:1;" d="M 741.800781 610.238281 C 742.511719 611.277344 743.171875 612.351562 743.777344 613.457031 C 744.386719 614.566406 744.945312 615.707031 745.449219 616.878906 C 745.953125 618.054688 746.402344 619.257812 746.800781 620.492188 C 747.199219 621.730469 747.546875 622.996094 747.839844 624.292969 C 748.128906 625.589844 748.367188 626.914062 748.554688 628.265625 C 748.738281 629.621094 748.871094 631 748.949219 632.40625 C 749.027344 633.8125 749.050781 635.246094 749.019531 636.703125 C 748.988281 638.160156 748.90625 639.640625 748.765625 641.144531 C 748.628906 642.648438 748.4375 644.175781 748.191406 645.722656 C 747.949219 647.269531 747.648438 648.835938 747.296875 650.421875 C 746.945312 652.007812 746.539062 653.613281 746.082031 655.234375 C 745.625 656.855469 745.113281 658.492188 744.550781 660.148438 C 743.988281 661.800781 743.375 663.46875 742.710938 665.148438 C 742.042969 666.832031 741.324219 668.523438 740.558594 670.230469 C 739.789062 671.933594 738.972656 673.648438 738.105469 675.371094 C 737.238281 677.097656 736.320312 678.828125 735.355469 680.570312 C 734.386719 682.308594 733.375 684.054688 732.3125 685.804688 C 731.253906 687.558594 730.144531 689.3125 728.992188 691.070312 C 727.835938 692.828125 726.636719 694.585938 725.390625 696.347656 C 724.148438 698.109375 722.859375 699.867188 721.527344 701.628906 C 720.195312 703.386719 718.820312 705.140625 717.40625 706.894531 C 715.992188 708.648438 714.535156 710.398438 713.039062 712.140625 C 711.542969 713.882812 710.007812 715.621094 708.433594 717.351562 C 706.859375 719.078125 705.25 720.800781 703.601562 722.511719 C 701.957031 724.222656 700.273438 725.921875 698.558594 727.609375 C 696.84375 729.296875 695.09375 730.972656 693.3125 732.636719 C 691.53125 734.296875 689.722656 735.945312 687.878906 737.574219 C 686.039062 739.207031 684.167969 740.820312 682.269531 742.417969 C 680.371094 744.015625 678.449219 745.59375 676.496094 747.152344 C 674.546875 748.710938 672.574219 750.246094 670.578125 751.761719 C 668.578125 753.28125 666.5625 754.773438 664.523438 756.246094 C 662.484375 757.714844 660.425781 759.160156 658.347656 760.582031 C 656.269531 762.003906 654.175781 763.398438 652.070312 764.769531 C 649.960938 766.136719 647.835938 767.476562 645.699219 768.792969 C 643.5625 770.105469 641.414062 771.386719 639.257812 772.640625 C 637.097656 773.894531 634.929688 775.117188 632.753906 776.308594 C 630.578125 777.5 628.398438 778.660156 626.210938 779.785156 C 624.023438 780.914062 621.832031 782.003906 619.640625 783.0625 C 617.445312 784.121094 615.25 785.144531 613.054688 786.132812 C 610.859375 787.121094 608.667969 788.074219 606.476562 788.992188 C 604.285156 789.90625 602.101562 790.785156 599.917969 791.625 C 597.738281 792.464844 595.5625 793.269531 593.394531 794.03125 C 591.230469 794.796875 589.074219 795.519531 586.925781 796.207031 C 584.777344 796.890625 582.644531 797.535156 580.523438 798.140625 C 578.402344 798.746094 576.292969 799.308594 574.203125 799.832031 C 572.109375 800.355469 570.035156 800.835938 567.980469 801.277344 C 565.921875 801.714844 563.886719 802.113281 561.871094 802.46875 C 559.855469 802.824219 557.859375 803.136719 555.890625 803.410156 C 553.917969 803.679688 551.972656 803.90625 550.050781 804.09375 C 548.128906 804.277344 546.234375 804.417969 544.367188 804.515625 C 542.5 804.617188 540.660156 804.671875 538.851562 804.683594 C 537.042969 804.695312 535.269531 804.664062 533.523438 804.589844 C 531.777344 804.515625 530.066406 804.398438 528.390625 804.238281 C 526.710938 804.078125 525.070312 803.875 523.464844 803.628906 C 521.855469 803.382812 520.289062 803.09375 518.757812 802.761719 C 517.226562 802.433594 515.734375 802.058594 514.285156 801.640625 C 512.832031 801.226562 511.421875 800.769531 510.054688 800.269531 C 508.683594 799.769531 507.359375 799.230469 506.074219 798.648438 C 504.789062 798.066406 503.550781 797.445312 502.359375 796.78125 C 501.164062 796.121094 500.015625 795.417969 498.910156 794.675781 C 497.808594 793.933594 496.753906 793.152344 495.746094 792.335938 C 494.738281 791.515625 493.777344 790.660156 492.867188 789.765625 C 491.957031 788.871094 491.09375 787.9375 490.28125 786.96875 C 489.46875 786.003906 488.707031 785 487.996094 783.960938 C 487.285156 782.921875 486.625 781.847656 486.019531 780.738281 C 485.410156 779.632812 484.855469 778.492188 484.351562 777.320312 C 483.84375 776.144531 483.394531 774.941406 482.996094 773.703125 C 482.597656 772.46875 482.25 771.203125 481.960938 769.90625 C 481.667969 768.609375 481.429688 767.285156 481.242188 765.929688 C 481.058594 764.578125 480.925781 763.199219 480.847656 761.792969 C 480.769531 760.382812 480.746094 758.953125 480.777344 757.496094 C 480.808594 756.039062 480.890625 754.558594 481.03125 753.054688 C 481.167969 751.550781 481.359375 750.023438 481.605469 748.476562 C 481.847656 746.929688 482.148438 745.363281 482.5 743.777344 C 482.851562 742.191406 483.257812 740.585938 483.714844 738.964844 C 484.171875 737.34375 484.683594 735.703125 485.246094 734.050781 C 485.808594 732.398438 486.421875 730.730469 487.089844 729.050781 C 487.753906 727.367188 488.472656 725.675781 489.238281 723.96875 C 490.007812 722.265625 490.824219 720.550781 491.691406 718.824219 C 492.558594 717.101562 493.476562 715.367188 494.441406 713.628906 C 495.410156 711.890625 496.421875 710.144531 497.484375 708.394531 C 498.542969 706.640625 499.652344 704.886719 500.808594 703.128906 C 501.960938 701.371094 503.160156 699.613281 504.40625 697.851562 C 505.648438 696.089844 506.9375 694.332031 508.269531 692.570312 C 509.601562 690.8125 510.976562 689.054688 512.390625 687.300781 C 513.808594 685.550781 515.261719 683.800781 516.757812 682.058594 C 518.253906 680.3125 519.789062 678.578125 521.363281 676.847656 C 522.9375 675.117188 524.546875 673.398438 526.195312 671.6875 C 527.839844 669.976562 529.523438 668.277344 531.238281 666.589844 C 532.953125 664.898438 534.703125 663.226562 536.484375 661.5625 C 538.265625 659.902344 540.074219 658.253906 541.917969 656.625 C 543.757812 654.992188 545.628906 653.378906 547.527344 651.78125 C 549.425781 650.183594 551.351562 648.605469 553.300781 647.046875 C 555.25 645.488281 557.222656 643.953125 559.21875 642.433594 C 561.21875 640.917969 563.234375 639.425781 565.277344 637.953125 C 567.316406 636.484375 569.371094 635.035156 571.449219 633.617188 C 573.527344 632.195312 575.621094 630.796875 577.730469 629.429688 C 579.839844 628.0625 581.960938 626.71875 584.097656 625.40625 C 586.234375 624.09375 588.382812 622.8125 590.539062 621.558594 C 592.699219 620.304688 594.867188 619.082031 597.042969 617.890625 C 599.21875 616.699219 601.398438 615.539062 603.585938 614.414062 C 605.773438 613.285156 607.964844 612.195312 610.15625 611.132812 C 612.351562 610.074219 614.546875 609.050781 616.742188 608.0625 C 618.9375 607.074219 621.128906 606.125 623.320312 605.207031 C 625.511719 604.292969 627.695312 603.414062 629.878906 602.574219 C 632.058594 601.730469 634.234375 600.929688 636.402344 600.164062 C 638.566406 599.402344 640.726562 598.675781 642.871094 597.992188 C 645.019531 597.308594 647.152344 596.660156 649.273438 596.058594 C 651.398438 595.453125 653.503906 594.886719 655.59375 594.367188 C 657.6875 593.84375 659.761719 593.363281 661.816406 592.921875 C 663.875 592.480469 665.910156 592.085938 667.925781 591.730469 C 669.941406 591.375 671.9375 591.058594 673.910156 590.789062 C 675.878906 590.519531 677.828125 590.292969 679.746094 590.105469 C 681.667969 589.921875 683.5625 589.78125 685.429688 589.679688 C 687.296875 589.582031 689.136719 589.527344 690.945312 589.515625 C 692.753906 589.503906 694.527344 589.535156 696.273438 589.609375 C 698.019531 589.683594 699.730469 589.800781 701.410156 589.960938 C 703.085938 590.121094 704.726562 590.324219 706.332031 590.570312 C 707.941406 590.816406 709.507812 591.105469 711.039062 591.433594 C 712.570312 591.765625 714.0625 592.140625 715.511719 592.554688 C 716.964844 592.972656 718.375 593.429688 719.746094 593.929688 C 721.113281 594.429688 722.441406 594.96875 723.722656 595.550781 C 725.007812 596.132812 726.246094 596.753906 727.441406 597.417969 C 728.632812 598.078125 729.78125 598.78125 730.886719 599.523438 C 731.988281 600.265625 733.042969 601.042969 734.050781 601.863281 C 735.058594 602.683594 736.019531 603.539062 736.929688 604.433594 C 737.839844 605.328125 738.703125 606.261719 739.515625 607.226562 C 740.328125 608.195312 741.089844 609.199219 741.800781 610.238281 Z M 741.800781 610.238281 "/><path style=" stroke:none;fill-rule:nonzero;fill:#ffe150;fill-opacity:1;" d="M 656.941406 748.21875 C 653.160156 750.808594 649.367188 753.285156 645.5625 755.652344 C 578.78125 797.191406 509.292969 804.769531 486.585938 771.59375 C 463.882812 738.421875 496.101562 676.382812 558.996094 629.164062 C 562.582031 626.472656 566.261719 623.835938 570.042969 621.246094 C 570.585938 620.875 571.125 620.507812 571.667969 620.140625 C 641.308594 573.117188 716.585938 563.078125 740.398438 597.871094 C 764.207031 632.664062 727.605469 699.207031 658.5625 747.105469 C 658.019531 747.476562 657.480469 747.851562 656.941406 748.21875 Z M 656.941406 748.21875 "/><path style=" stroke:none;fill-rule:nonzero;fill:#edcb3a;fill-opacity:1;" d="M 656.941406 748.21875 C 653.160156 750.808594 649.367188 753.285156 645.5625 755.652344 L 558.996094 629.167969 C 562.582031 626.476562 566.261719 623.839844 570.042969 621.25 C 570.585938 620.882812 571.125 620.511719 571.667969 620.144531 L 658.5625 747.105469 C 658.019531 747.476562 657.480469 747.851562 656.941406 748.21875 Z M 656.941406 748.21875 "/><path style=" stroke:none;fill-rule:nonzero;fill:#e6e7e8;fill-opacity:1;" d="M 701.476562 477.535156 C 701.476562 478.773438 701.445312 480.011719 701.386719 481.25 C 701.324219 482.488281 701.234375 483.722656 701.113281 484.957031 C 700.992188 486.191406 700.839844 487.417969 700.65625 488.644531 C 700.476562 489.871094 700.265625 491.089844 700.023438 492.308594 C 699.78125 493.523438 699.507812 494.730469 699.207031 495.933594 C 698.90625 497.136719 698.578125 498.328125 698.21875 499.515625 C 697.859375 500.699219 697.46875 501.878906 697.050781 503.042969 C 696.632812 504.210938 696.1875 505.367188 695.714844 506.511719 C 695.238281 507.65625 694.738281 508.789062 694.207031 509.910156 C 693.679688 511.027344 693.121094 512.136719 692.539062 513.226562 C 691.953125 514.320312 691.34375 515.398438 690.707031 516.460938 C 690.070312 517.523438 689.40625 518.570312 688.71875 519.601562 C 688.027344 520.632812 687.316406 521.644531 686.578125 522.640625 C 685.839844 523.636719 685.078125 524.613281 684.292969 525.570312 C 683.503906 526.527344 682.695312 527.464844 681.863281 528.382812 C 681.03125 529.300781 680.175781 530.199219 679.300781 531.074219 C 678.425781 531.953125 677.527344 532.804688 676.609375 533.636719 C 675.691406 534.46875 674.753906 535.28125 673.796875 536.066406 C 672.839844 536.851562 671.863281 537.613281 670.867188 538.351562 C 669.871094 539.089844 668.859375 539.804688 667.828125 540.492188 C 666.796875 541.179688 665.75 541.84375 664.6875 542.480469 C 663.625 543.117188 662.546875 543.726562 661.453125 544.3125 C 660.363281 544.894531 659.253906 545.453125 658.136719 545.984375 C 657.015625 546.511719 655.882812 547.015625 654.738281 547.488281 C 653.59375 547.964844 652.4375 548.410156 651.269531 548.828125 C 650.105469 549.242188 648.929688 549.632812 647.742188 549.992188 C 646.554688 550.351562 645.363281 550.683594 644.160156 550.984375 C 642.957031 551.285156 641.75 551.554688 640.535156 551.796875 C 639.320312 552.039062 638.097656 552.25 636.875 552.433594 C 635.648438 552.613281 634.417969 552.765625 633.183594 552.886719 C 631.953125 553.007812 630.714844 553.101562 629.480469 553.160156 C 628.242188 553.222656 627.003906 553.253906 625.765625 553.253906 C 624.523438 553.253906 623.285156 553.222656 622.046875 553.160156 C 620.8125 553.101562 619.574219 553.007812 618.34375 552.886719 C 617.109375 552.765625 615.878906 552.613281 614.652344 552.433594 C 613.429688 552.25 612.207031 552.039062 610.992188 551.796875 C 609.777344 551.554688 608.570312 551.285156 607.367188 550.984375 C 606.164062 550.683594 604.972656 550.351562 603.785156 549.992188 C 602.597656 549.632812 601.421875 549.242188 600.257812 548.828125 C 599.089844 548.410156 597.933594 547.964844 596.789062 547.488281 C 595.644531 547.015625 594.511719 546.511719 593.390625 545.984375 C 592.273438 545.453125 591.164062 544.894531 590.074219 544.3125 C 588.980469 543.726562 587.902344 543.117188 586.839844 542.480469 C 585.777344 541.84375 584.730469 541.179688 583.699219 540.492188 C 582.667969 539.804688 581.65625 539.089844 580.660156 538.351562 C 579.664062 537.613281 578.6875 536.851562 577.730469 536.066406 C 576.773438 535.28125 575.835938 534.46875 574.917969 533.636719 C 574 532.804688 573.101562 531.953125 572.226562 531.074219 C 571.351562 530.199219 570.496094 529.300781 569.664062 528.382812 C 568.832031 527.464844 568.023438 526.527344 567.234375 525.570312 C 566.449219 524.613281 565.6875 523.636719 564.949219 522.640625 C 564.210938 521.644531 563.5 520.632812 562.808594 519.601562 C 562.121094 518.570312 561.457031 517.523438 560.820312 516.460938 C 560.183594 515.398438 559.574219 514.320312 558.988281 513.226562 C 558.40625 512.136719 557.847656 511.027344 557.320312 509.910156 C 556.789062 508.789062 556.289062 507.65625 555.8125 506.511719 C 555.339844 505.367188 554.894531 504.210938 554.476562 503.042969 C 554.058594 501.878906 553.667969 500.699219 553.308594 499.515625 C 552.949219 498.328125 552.621094 497.136719 552.320312 495.933594 C 552.019531 494.730469 551.746094 493.523438 551.503906 492.308594 C 551.261719 491.089844 551.050781 489.871094 550.871094 488.644531 C 550.6875 487.417969 550.535156 486.191406 550.414062 484.957031 C 550.292969 483.722656 550.203125 482.488281 550.140625 481.25 C 550.082031 480.011719 550.050781 478.773438 550.050781 477.535156 C 550.050781 476.296875 550.082031 475.058594 550.140625 473.820312 C 550.203125 472.582031 550.292969 471.347656 550.414062 470.113281 C 550.535156 468.878906 550.6875 467.652344 550.871094 466.425781 C 551.050781 465.199219 551.261719 463.980469 551.503906 462.761719 C 551.746094 461.546875 552.019531 460.339844 552.320312 459.136719 C 552.621094 457.933594 552.949219 456.742188 553.308594 455.554688 C 553.667969 454.371094 554.058594 453.195312 554.476562 452.027344 C 554.894531 450.859375 555.339844 449.703125 555.8125 448.558594 C 556.289062 447.414062 556.789062 446.28125 557.320312 445.160156 C 557.847656 444.042969 558.40625 442.933594 558.988281 441.84375 C 559.574219 440.75 560.183594 439.671875 560.820312 438.609375 C 561.457031 437.546875 562.121094 436.5 562.808594 435.46875 C 563.5 434.4375 564.210938 433.425781 564.949219 432.429688 C 565.6875 431.433594 566.449219 430.457031 567.234375 429.5 C 568.023438 428.542969 568.832031 427.605469 569.664062 426.6875 C 570.496094 425.769531 571.351562 424.871094 572.226562 423.996094 C 573.101562 423.117188 574 422.265625 574.917969 421.433594 C 575.835938 420.601562 576.773438 419.789062 577.730469 419.003906 C 578.6875 418.21875 579.664062 417.457031 580.660156 416.71875 C 581.65625 415.980469 582.667969 415.265625 583.699219 414.578125 C 584.730469 413.890625 585.777344 413.226562 586.839844 412.589844 C 587.902344 411.953125 588.980469 411.34375 590.074219 410.757812 C 591.164062 410.175781 592.273438 409.617188 593.390625 409.085938 C 594.511719 408.558594 595.644531 408.054688 596.789062 407.582031 C 597.933594 407.105469 599.089844 406.660156 600.257812 406.242188 C 601.421875 405.828125 602.597656 405.4375 603.785156 405.078125 C 604.972656 404.71875 606.164062 404.386719 607.367188 404.085938 C 608.570312 403.785156 609.777344 403.515625 610.992188 403.273438 C 612.207031 403.03125 613.429688 402.820312 614.652344 402.636719 C 615.878906 402.457031 617.109375 402.304688 618.34375 402.183594 C 619.574219 402.0625 620.8125 401.96875 622.046875 401.910156 C 623.285156 401.847656 624.523438 401.816406 625.765625 401.816406 C 627.003906 401.816406 628.242188 401.847656 629.480469 401.910156 C 630.714844 401.96875 631.953125 402.0625 633.183594 402.183594 C 634.417969 402.304688 635.648438 402.457031 636.875 402.636719 C 638.097656 402.820312 639.320312 403.03125 640.535156 403.273438 C 641.75 403.515625 642.957031 403.785156 644.160156 404.085938 C 645.363281 404.386719 646.554688 404.71875 647.742188 405.078125 C 648.929688 405.4375 650.105469 405.828125 651.269531 406.242188 C 652.4375 406.660156 653.59375 407.105469 654.738281 407.582031 C 655.882812 408.054688 657.015625 408.558594 658.136719 409.085938 C 659.253906 409.617188 660.363281 410.175781 661.453125 410.757812 C 662.546875 411.34375 663.625 411.953125 664.6875 412.589844 C 665.75 413.226562 666.796875 413.890625 667.828125 414.578125 C 668.859375 415.265625 669.871094 415.980469 670.867188 416.71875 C 671.863281 417.457031 672.839844 418.21875 673.796875 419.003906 C 674.753906 419.789062 675.691406 420.601562 676.609375 421.433594 C 677.527344 422.265625 678.425781 423.117188 679.300781 423.996094 C 680.175781 424.871094 681.03125 425.769531 681.863281 426.6875 C 682.695312 427.605469 683.503906 428.542969 684.292969 429.5 C 685.078125 430.457031 685.839844 431.433594 686.578125 432.429688 C 687.316406 433.425781 688.027344 434.4375 688.71875 435.46875 C 689.40625 436.5 690.070312 437.546875 690.707031 438.609375 C 691.34375 439.671875 691.953125 440.75 692.539062 441.84375 C 693.121094 442.933594 693.679688 444.042969 694.207031 445.160156 C 694.738281 446.28125 695.238281 447.414062 695.714844 448.558594 C 696.1875 449.703125 696.632812 450.859375 697.050781 452.027344 C 697.46875 453.195312 697.859375 454.371094 698.21875 455.554688 C 698.578125 456.742188 698.90625 457.933594 699.207031 459.136719 C 699.507812 460.339844 699.78125 461.546875 700.023438 462.761719 C 700.265625 463.980469 700.476562 465.199219 700.65625 466.425781 C 700.839844 467.652344 700.992188 468.878906 701.113281 470.113281 C 701.234375 471.347656 701.324219 472.582031 701.386719 473.820312 C 701.445312 475.058594 701.476562 476.296875 701.476562 477.535156 Z M 701.476562 477.535156 "/><path style=" stroke:none;fill-rule:nonzero;fill:#ffffff;fill-opacity:1;" d="M 701.476562 456.769531 C 701.476562 458.007812 701.445312 459.246094 701.386719 460.484375 C 701.324219 461.71875 701.234375 462.957031 701.113281 464.1875 C 700.992188 465.421875 700.839844 466.652344 700.65625 467.878906 C 700.476562 469.101562 700.265625 470.324219 700.023438 471.539062 C 699.78125 472.753906 699.507812 473.964844 699.207031 475.164062 C 698.90625 476.367188 698.578125 477.5625 698.21875 478.746094 C 697.859375 479.933594 697.46875 481.109375 697.050781 482.277344 C 696.632812 483.441406 696.1875 484.597656 695.714844 485.742188 C 695.238281 486.886719 694.738281 488.019531 694.207031 489.140625 C 693.679688 490.261719 693.121094 491.367188 692.539062 492.460938 C 691.953125 493.554688 691.34375 494.632812 690.707031 495.695312 C 690.070312 496.757812 689.40625 497.804688 688.71875 498.832031 C 688.027344 499.863281 687.316406 500.878906 686.578125 501.871094 C 685.839844 502.867188 685.078125 503.84375 684.292969 504.800781 C 683.503906 505.761719 682.695312 506.699219 681.863281 507.617188 C 681.03125 508.535156 680.175781 509.433594 679.300781 510.308594 C 678.425781 511.183594 677.527344 512.039062 676.609375 512.871094 C 675.691406 513.703125 674.753906 514.511719 673.796875 515.296875 C 672.839844 516.085938 671.863281 516.847656 670.867188 517.585938 C 669.871094 518.324219 668.859375 519.035156 667.828125 519.722656 C 666.796875 520.414062 665.75 521.074219 664.6875 521.710938 C 663.625 522.351562 662.546875 522.960938 661.453125 523.542969 C 660.363281 524.128906 659.253906 524.683594 658.136719 525.214844 C 657.015625 525.746094 655.882812 526.246094 654.738281 526.722656 C 653.59375 527.195312 652.4375 527.640625 651.269531 528.058594 C 650.105469 528.476562 648.929688 528.863281 647.742188 529.226562 C 646.554688 529.585938 645.363281 529.914062 644.160156 530.214844 C 642.957031 530.515625 641.75 530.789062 640.535156 531.03125 C 639.320312 531.273438 638.097656 531.484375 636.875 531.664062 C 635.648438 531.847656 634.417969 532 633.183594 532.121094 C 631.953125 532.242188 630.714844 532.332031 629.480469 532.394531 C 628.242188 532.453125 627.003906 532.484375 625.765625 532.484375 C 624.523438 532.484375 623.285156 532.453125 622.046875 532.394531 C 620.8125 532.332031 619.574219 532.242188 618.34375 532.121094 C 617.109375 532 615.878906 531.847656 614.652344 531.664062 C 613.429688 531.484375 612.207031 531.273438 610.992188 531.03125 C 609.777344 530.789062 608.570312 530.515625 607.367188 530.214844 C 606.164062 529.914062 604.972656 529.585938 603.785156 529.226562 C 602.597656 528.863281 601.421875 528.476562 600.257812 528.058594 C 599.089844 527.640625 597.933594 527.195312 596.789062 526.722656 C 595.644531 526.246094 594.511719 525.746094 593.390625 525.214844 C 592.273438 524.683594 591.164062 524.128906 590.074219 523.542969 C 588.980469 522.960938 587.902344 522.351562 586.839844 521.710938 C 585.777344 521.074219 584.730469 520.414062 583.699219 519.722656 C 582.667969 519.035156 581.65625 518.324219 580.660156 517.585938 C 579.664062 516.847656 578.6875 516.085938 577.730469 515.296875 C 576.773438 514.511719 575.835938 513.703125 574.917969 512.871094 C 574 512.039062 573.101562 511.183594 572.226562 510.308594 C 571.351562 509.433594 570.496094 508.535156 569.664062 507.617188 C 568.832031 506.699219 568.023438 505.761719 567.234375 504.800781 C 566.449219 503.84375 565.6875 502.867188 564.949219 501.871094 C 564.210938 500.878906 563.5 499.863281 562.808594 498.832031 C 562.121094 497.804688 561.457031 496.757812 560.820312 495.695312 C 560.183594 494.632812 559.574219 493.554688 558.988281 492.460938 C 558.40625 491.367188 557.847656 490.261719 557.320312 489.140625 C 556.789062 488.019531 556.289062 486.886719 555.8125 485.742188 C 555.339844 484.597656 554.894531 483.441406 554.476562 482.277344 C 554.058594 481.109375 553.667969 479.933594 553.308594 478.746094 C 552.949219 477.5625 552.621094 476.367188 552.320312 475.164062 C 552.019531 473.964844 551.746094 472.753906 551.503906 471.539062 C 551.261719 470.324219 551.050781 469.101562 550.871094 467.878906 C 550.6875 466.652344 550.535156 465.421875 550.414062 464.1875 C 550.292969 462.957031 550.203125 461.71875 550.140625 460.484375 C 550.082031 459.246094 550.050781 458.007812 550.050781 456.769531 C 550.050781 455.527344 550.082031 454.289062 550.140625 453.050781 C 550.203125 451.816406 550.292969 450.578125 550.414062 449.347656 C 550.535156 448.113281 550.6875 446.882812 550.871094 445.65625 C 551.050781 444.433594 551.261719 443.210938 551.503906 441.996094 C 551.746094 440.78125 552.019531 439.570312 552.320312 438.371094 C 552.621094 437.167969 552.949219 435.972656 553.308594 434.789062 C 553.667969 433.601562 554.058594 432.425781 554.476562 431.257812 C 554.894531 430.09375 555.339844 428.9375 555.8125 427.792969 C 556.289062 426.648438 556.789062 425.515625 557.320312 424.394531 C 557.847656 423.273438 558.40625 422.167969 558.988281 421.074219 C 559.574219 419.980469 560.183594 418.902344 560.820312 417.839844 C 561.457031 416.777344 562.121094 415.730469 562.808594 414.703125 C 563.5 413.671875 564.210938 412.65625 564.949219 411.664062 C 565.6875 410.667969 566.449219 409.691406 567.234375 408.734375 C 568.023438 407.773438 568.832031 406.835938 569.664062 405.917969 C 570.496094 405 571.351562 404.101562 572.226562 403.226562 C 573.101562 402.351562 574 401.496094 574.917969 400.664062 C 575.835938 399.832031 576.773438 399.023438 577.730469 398.238281 C 578.6875 397.449219 579.664062 396.6875 580.660156 395.949219 C 581.65625 395.210938 582.667969 394.5 583.699219 393.8125 C 584.730469 393.121094 585.777344 392.460938 586.839844 391.824219 C 587.902344 391.183594 588.980469 390.574219 590.074219 389.992188 C 591.164062 389.40625 592.273438 388.847656 593.390625 388.320312 C 594.511719 387.789062 595.644531 387.289062 596.789062 386.8125 C 597.933594 386.339844 599.089844 385.894531 600.257812 385.476562 C 601.421875 385.058594 602.597656 384.671875 603.785156 384.308594 C 604.972656 383.949219 606.164062 383.621094 607.367188 383.320312 C 608.570312 383.019531 609.777344 382.746094 610.992188 382.503906 C 612.207031 382.261719 613.429688 382.050781 614.652344 381.871094 C 615.878906 381.6875 617.109375 381.535156 618.34375 381.414062 C 619.574219 381.292969 620.8125 381.203125 622.046875 381.140625 C 623.285156 381.082031 624.523438 381.050781 625.765625 381.050781 C 627.003906 381.050781 628.242188 381.082031 629.480469 381.140625 C 630.714844 381.203125 631.953125 381.292969 633.183594 381.414062 C 634.417969 381.535156 635.648438 381.6875 636.875 381.871094 C 638.097656 382.050781 639.320312 382.261719 640.535156 382.503906 C 641.75 382.746094 642.957031 383.019531 644.160156 383.320312 C 645.363281 383.621094 646.554688 383.949219 647.742188 384.308594 C 648.929688 384.671875 650.105469 385.058594 651.269531 385.476562 C 652.4375 385.894531 653.59375 386.339844 654.738281 386.8125 C 655.882812 387.289062 657.015625 387.789062 658.136719 388.320312 C 659.253906 388.847656 660.363281 389.40625 661.453125 389.992188 C 662.546875 390.574219 663.625 391.183594 664.6875 391.824219 C 665.75 392.460938 666.796875 393.121094 667.828125 393.8125 C 668.859375 394.5 669.871094 395.210938 670.867188 395.949219 C 671.863281 396.6875 672.839844 397.449219 673.796875 398.238281 C 674.753906 399.023438 675.691406 399.832031 676.609375 400.664062 C 677.527344 401.496094 678.425781 402.351562 679.300781 403.226562 C 680.175781 404.101562 681.03125 405 681.863281 405.917969 C 682.695312 406.835938 683.503906 407.773438 684.292969 408.734375 C 685.078125 409.691406 685.839844 410.667969 686.578125 411.664062 C 687.316406 412.65625 688.027344 413.671875 688.71875 414.699219 C 689.40625 415.730469 690.070312 416.777344 690.707031 417.839844 C 691.34375 418.902344 691.953125 419.980469 692.539062 421.074219 C 693.121094 422.167969 693.679688 423.273438 694.207031 424.394531 C 694.738281 425.515625 695.238281 426.648438 695.714844 427.792969 C 696.1875 428.9375 696.632812 430.09375 697.050781 431.257812 C 697.46875 432.425781 697.859375 433.601562 698.21875 434.789062 C 698.578125 435.972656 698.90625 437.167969 699.207031 438.371094 C 699.507812 439.570312 699.78125 440.78125 700.023438 441.996094 C 700.265625 443.210938 700.476562 444.433594 700.65625 445.65625 C 700.839844 446.882812 700.992188 448.113281 701.113281 449.347656 C 701.234375 450.578125 701.324219 451.816406 701.386719 453.050781 C 701.445312 454.289062 701.476562 455.527344 701.476562 456.769531 Z M 701.476562 456.769531 "/></g></svg>