<svg xmlns="http://www.w3.org/2000/svg" xmlns:xlink="http://www.w3.org/1999/xlink" width="1080" zoomAndPan="magnify" viewBox="0 0 810 1012.49997" height="1350" preserveAspectRatio="xMidYMid meet" version="1.2"><defs><clipPath id="22d6974fc6"><path d="M 66 242.226562 L 310 242.226562 L 310 577 L 66 577 Z M 66 242.226562 "/></clipPath></defs><g id="295514f778"><path style=" stroke:none;fill-rule:nonzero;fill:#6f918a;fill-opacity:1;" d="M 405.769531 314.777344 C 374.785156 314.777344 344.144531 321.0625 315.65625 333.238281 L 318.664062 336.605469 C 335.15625 354.707031 337.519531 379.074219 324.828125 400.042969 C 312.753906 420.007812 291.636719 429.144531 269.183594 424.664062 C 268.042969 424.554688 266.894531 424.339844 265.785156 424.0625 L 265.722656 424.0625 L 258.566406 422.199219 L 258.566406 533.410156 C 258.503906 556.621094 244.3125 576.820312 222.320312 584.546875 L 222.289062 584.578125 L 190.648438 595.703125 L 190.617188 595.703125 C 188.09375 596.59375 185.503906 597.269531 182.886719 597.777344 C 207.789062 700.617188 299.894531 773.085938 405.769531 773.085938 C 436.753906 773.085938 467.394531 766.800781 495.886719 754.625 L 492.878906 751.257812 C 476.398438 733.15625 474.023438 708.769531 486.710938 687.820312 C 498.769531 667.855469 519.886719 658.71875 542.359375 663.199219 C 543.496094 663.320312 544.632812 663.523438 545.757812 663.800781 L 545.816406 663.800781 L 553.003906 665.664062 L 553.003906 554.453125 C 553.066406 531.289062 567.226562 511.054688 589.25 503.3125 L 620.894531 492.160156 L 620.921875 492.160156 C 623.449219 491.265625 626.035156 490.59375 628.652344 490.085938 C 603.734375 387.242188 511.648438 314.777344 405.769531 314.777344 Z M 415.574219 372.050781 L 415.726562 372.050781 C 423.425781 371.804688 429.871094 377.851562 430.132812 385.550781 L 430.132812 409.363281 C 440.777344 411.976562 450.988281 416.359375 460.183594 422.410156 C 476.597656 433.183594 489.5 448.710938 497.027344 466.90625 C 501.433594 477.527344 496.390625 489.726562 485.75 494.144531 L 485.660156 494.203125 L 479.042969 496.878906 C 468.429688 501.207031 456.269531 496.136719 451.882812 485.546875 C 448.214844 476.648438 441.496094 468.519531 433.414062 463.207031 C 424.574219 457.402344 413.210938 454.585938 403.03125 455.632812 C 392.929688 456.664062 382.71875 461.730469 376.171875 468.949219 C 371.289062 474.335938 368.15625 481.328125 367.570312 487.410156 C 367 493.289062 368.972656 499.800781 371.992188 503.464844 C 375.148438 507.265625 382.015625 511.488281 391.242188 514.769531 C 397.496094 517 403.917969 518.691406 410.433594 519.96875 C 419.363281 521.710938 428.144531 524.152344 436.691406 527.214844 C 449.796875 531.894531 465.257812 539.023438 477.148438 553.402344 C 489.421875 568.257812 494.332031 587.054688 492.578125 605.171875 C 490.835938 623.089844 482.855469 639.125 471.523438 651.652344 C 460.265625 664.089844 445.875 672.9375 430.132812 677.570312 L 430.132812 694.585938 C 430.101562 700.480469 426.367188 705.738281 420.808594 707.695312 L 399.996094 715.058594 C 392.726562 717.613281 384.746094 713.800781 382.1875 706.519531 C 381.664062 705.042969 381.40625 703.476562 381.40625 701.890625 L 381.40625 678.53125 C 370.75 675.914062 360.550781 671.503906 351.359375 665.453125 C 334.941406 654.679688 322.074219 639.152344 314.542969 620.957031 C 310.136719 610.335938 315.179688 598.136719 325.820312 593.71875 C 325.851562 593.703125 325.910156 593.703125 325.941406 593.6875 L 332.558594 591.011719 C 343.183594 586.71875 355.285156 591.800781 359.660156 602.378906 C 363.339844 611.257812 370.058594 619.34375 378.15625 624.65625 C 386.996094 630.457031 398.28125 633.292969 408.449219 632.230469 C 418.535156 631.199219 428.777344 626.132812 435.335938 618.882812 C 440.21875 613.496094 443.371094 606.546875 443.96875 600.484375 C 444.539062 594.601562 442.582031 588.09375 439.546875 584.429688 C 436.390625 580.609375 429.507812 576.402344 420.296875 573.125 C 414.046875 570.890625 407.621094 569.125 401.109375 567.863281 C 392.207031 566.125 383.425781 563.742188 374.847656 560.675781 C 361.726562 555.980469 346.253906 548.851562 334.363281 534.492188 C 322.089844 519.652344 317.207031 500.808594 318.964844 482.6875 C 320.703125 464.773438 328.667969 448.738281 340.019531 436.210938 C 351.277344 423.785156 365.714844 414.972656 381.4375 410.324219 L 381.4375 393.335938 C 381.4375 387.425781 385.15625 382.140625 390.730469 380.167969 L 411.574219 372.800781 C 412.855469 372.371094 414.191406 372.113281 415.574219 372.050781 Z M 415.574219 372.050781 "/><path style=" stroke:none;fill-rule:nonzero;fill:#ff9955;fill-opacity:1;" d="M 637.714844 511.25 C 634.496094 511.359375 631.277344 511.992188 628.242188 513.050781 L 596.59375 524.210938 C 584.121094 528.585938 575.171875 541.3125 575.144531 554.523438 L 575.144531 694.351562 L 540.183594 685.269531 C 540.152344 685.269531 540.152344 685.269531 540.121094 685.269531 C 527.878906 682.085938 512.1875 688.457031 505.625 699.277344 C 499.066406 710.117188 500.726562 727.003906 509.230469 736.347656 L 600.058594 836.125 L 600.058594 836.15625 C 605.449219 842.082031 613.6875 845.992188 621.683594 846.34375 C 622.375 846.375 622.945312 846.34375 623.453125 846.34375 C 623.578125 846.34375 623.699219 846.34375 623.808594 846.34375 C 632.046875 846.144531 640.5625 842.234375 646.089844 836.15625 L 646.089844 836.125 L 736.890625 736.347656 C 745.40625 727.003906 747.054688 710.117188 740.496094 699.277344 C 733.949219 688.457031 718.242188 682.085938 706 685.269531 L 671.039062 694.351562 L 671.039062 543.421875 C 671.101562 526.199219 654.945312 510.636719 637.714844 511.25 Z M 637.714844 511.25 "/><g clip-rule="nonzero" clip-path="url(#22d6974fc6)"><path style=" stroke:none;fill-rule:nonzero;fill:#ff9955;fill-opacity:1;" d="M 187.734375 241.515625 C 179.480469 241.703125 170.945312 245.613281 165.417969 251.707031 C 165.417969 251.707031 165.417969 251.722656 165.417969 251.738281 L 74.601562 351.515625 C 66.085938 360.875 64.4375 377.746094 71 388.582031 C 77.542969 399.40625 93.253906 405.777344 105.496094 402.589844 L 140.5 393.507812 L 140.5 544.4375 C 140.5 561.664062 156.59375 577.210938 173.828125 576.609375 C 177.046875 576.488281 180.25 575.871094 183.296875 574.808594 L 214.945312 563.648438 C 227.417969 559.277344 236.382812 546.546875 236.429688 533.339844 L 236.429688 393.507812 L 271.355469 402.589844 C 271.371094 402.589844 271.386719 402.589844 271.417969 402.589844 C 283.660156 405.777344 299.371094 399.40625 305.914062 388.582031 C 312.476562 377.746094 310.828125 360.875 302.3125 351.515625 L 211.480469 251.738281 C 211.480469 251.738281 211.480469 251.722656 211.480469 251.722656 C 206.089844 245.796875 197.851562 241.886719 189.859375 241.515625 C 189.179688 241.488281 188.582031 241.515625 188.085938 241.515625 C 187.949219 241.515625 187.839844 241.515625 187.734375 241.515625 Z M 187.734375 241.515625 "/></g></g></svg>